<svg width="37" height="36" viewBox="0 0 37 36" fill="none" xmlns="http://www.w3.org/2000/svg">
<ellipse cx="18.243" cy="18" rx="18.0125" ry="18" fill="url(#paint0_linear_125_119)"/>
<path d="M18.2529 12.8946C18.0769 12.8946 17.9028 12.9036 17.7313 12.9212C17.5597 12.9388 17.3906 12.9648 17.2243 12.999C17.0581 13.0332 16.8948 13.0756 16.7347 13.1256L16.265 13.2983L15.8178 13.5145L15.3958 13.7715L15.0015 14.0668L14.6376 14.3977L14.3067 14.7616L14.0115 15.156L13.7544 15.5781L13.5383 16.0253C13.4733 16.1782 13.4156 16.335 13.3656 16.4951C13.3156 16.6552 13.2732 16.8186 13.239 16.9849C13.2048 17.1511 13.1787 17.3203 13.1611 17.4918C13.1435 17.6634 13.1346 17.8375 13.1346 18.0135C13.1346 18.1895 13.1436 18.3636 13.1611 18.5352C13.1785 18.7054 13.2045 18.8746 13.239 19.0422C13.2732 19.2091 13.3156 19.3719 13.3656 19.532C13.4156 19.692 13.4733 19.8488 13.5383 20.0018L13.7544 20.449L14.0115 20.8711L14.3067 21.2654L14.6376 21.6294L15.0015 21.9603L15.3958 22.2555L15.8178 22.5126L16.265 22.7288L16.7347 22.9015L17.2243 23.028C17.3919 23.0626 17.5611 23.0886 17.7313 23.106C17.9046 23.1237 18.0787 23.1325 18.2529 23.1325C18.4289 23.1325 18.6029 23.1235 18.7744 23.106C18.9446 23.0886 19.1137 23.0626 19.2813 23.028L19.771 22.9015L20.2407 22.7288L20.6878 22.5126L21.1099 22.2555L21.5043 21.9603L21.8682 21.6294L22.199 21.2654L22.4943 20.8711L22.7514 20.449L22.9675 20.0018L23.1402 19.532C23.1902 19.3719 23.2325 19.2084 23.2668 19.0422L23.3447 18.5351C23.3623 18.3635 23.3712 18.1894 23.3712 18.0134C23.3712 17.8374 23.3623 17.6634 23.3447 17.4918C23.3273 17.3216 23.3013 17.1524 23.2668 16.9848C23.2325 16.8179 23.1902 16.6552 23.1402 16.4951L22.9675 16.0252L22.7514 15.578L22.4943 15.1559L22.199 14.7616L21.8682 14.3976L21.5043 14.0667L21.1099 13.7715L20.6878 13.5144L20.2407 13.2982L19.771 13.1255L19.2813 12.999L18.7744 12.9211C18.6011 12.9034 18.427 12.8945 18.2529 12.8945V12.8946ZM18.2529 14.6615C18.3692 14.6615 18.4841 14.6672 18.5972 14.6787L18.9306 14.7292L19.2526 14.8113L19.561 14.9235L19.8543 15.064L20.13 15.2313L20.3877 15.4236L20.6253 15.6394L20.8411 15.8771L21.0334 16.1348L21.2007 16.4112L21.3411 16.7046C21.3833 16.805 21.4207 16.9079 21.4533 17.0131C21.4859 17.1183 21.5132 17.2258 21.5354 17.3353C21.5575 17.4448 21.5738 17.5562 21.5858 17.6694L21.603 18.0138C21.603 18.1302 21.5972 18.2451 21.5858 18.3583C21.5744 18.4716 21.5576 18.583 21.5354 18.6924C21.5131 18.8019 21.4857 18.9094 21.4533 19.0147L21.3411 19.3231L21.2007 19.6165L21.0334 19.8928L20.8411 20.1507L20.6253 20.3883L20.3877 20.6041L20.13 20.7965L19.8543 20.9637L19.561 21.1042L19.2526 21.2164L18.9306 21.2985L18.5972 21.349C18.4827 21.3605 18.3678 21.3662 18.2528 21.3662C18.1378 21.3662 18.0228 21.3605 17.9084 21.349L17.5749 21.2985C17.4655 21.2763 17.358 21.2489 17.2528 21.2164L16.9444 21.1042L16.6512 20.9637L16.3755 20.7965L16.1177 20.6041L15.8801 20.3883L15.6644 20.1507L15.472 19.8928L15.3048 19.6165L15.1644 19.3231L15.0522 19.0147L14.9701 18.6924L14.9196 18.3583C14.9082 18.2439 14.9024 18.1289 14.9025 18.0138C14.9024 17.8988 14.9082 17.7838 14.9196 17.6694C14.931 17.5562 14.9479 17.4447 14.9701 17.3353C14.9921 17.2266 15.0195 17.1191 15.0522 17.0131L15.1644 16.7046L15.3049 16.4113L15.4721 16.1349L15.6644 15.8771L15.8802 15.6395L16.1178 15.4237L16.3756 15.2313L16.6513 15.0641L16.9445 14.9235C17.0454 14.8811 17.1483 14.8437 17.2529 14.8114L17.5751 14.7292C17.6845 14.707 17.796 14.6901 17.9085 14.6787C18.0229 14.6672 18.1379 14.6615 18.2529 14.6615L18.2529 14.6615Z" fill="black"/>
<path d="M23.5781 11.4414C23.5375 11.4414 23.4969 11.4435 23.4564 11.4476C23.416 11.4517 23.3758 11.4578 23.336 11.4659C23.2961 11.4741 23.2567 11.4842 23.2179 11.4963C23.1791 11.5084 23.1409 11.5224 23.1035 11.5384C23.066 11.5544 23.0294 11.5722 22.9938 11.5919C22.9581 11.6115 22.9234 11.6329 22.8899 11.656C22.8563 11.6791 22.824 11.7039 22.7929 11.7303C22.7618 11.7567 22.7321 11.7846 22.7038 11.814C22.6754 11.8433 22.6486 11.8741 22.6234 11.9062C22.5981 11.9383 22.5745 11.9716 22.5525 12.0061C22.5306 12.0405 22.5103 12.076 22.4919 12.1125C22.4735 12.149 22.4568 12.1864 22.4421 12.2246C22.4274 12.2627 22.4146 12.3016 22.4037 12.3411C22.3928 12.3805 22.3839 12.4205 22.377 12.4608C22.3701 12.5012 22.3652 12.5418 22.3623 12.5827C22.3603 12.6116 22.3593 12.6406 22.3593 12.6696C22.3593 12.7106 22.3613 12.7515 22.3653 12.7923C22.3694 12.833 22.3755 12.8735 22.3836 12.9136C22.3916 12.9538 22.4017 12.9935 22.4137 13.0326C22.4257 13.0717 22.4397 13.1102 22.4555 13.1479C22.4713 13.1857 22.489 13.2226 22.5085 13.2585C22.528 13.2945 22.5492 13.3294 22.5722 13.3632C22.5951 13.397 22.6197 13.4296 22.6459 13.4609C22.6721 13.4922 22.6998 13.5222 22.729 13.5508C22.7581 13.5793 22.7887 13.6063 22.8205 13.6318C22.8524 13.6572 22.8854 13.6811 22.9196 13.7032C22.9538 13.7254 22.9891 13.7457 23.0254 13.7643C23.0616 13.7829 23.0987 13.7997 23.1365 13.8145C23.1744 13.8294 23.213 13.8423 23.2522 13.8532C23.2913 13.8642 23.331 13.8731 23.371 13.8801C23.4111 13.887 23.4514 13.892 23.492 13.8949C23.5207 13.8969 23.5494 13.898 23.5782 13.898C23.6188 13.898 23.6594 13.8959 23.6999 13.8919C23.7403 13.8878 23.7805 13.8817 23.8204 13.8735C23.8602 13.8654 23.8996 13.8552 23.9384 13.8432C23.9772 13.831 24.0154 13.817 24.0529 13.801C24.0903 13.7851 24.1269 13.7673 24.1626 13.7476C24.1982 13.728 24.2329 13.7066 24.2664 13.6834C24.3 13.6603 24.3323 13.6356 24.3634 13.6092C24.3945 13.5828 24.4243 13.5549 24.4526 13.5255C24.4809 13.4961 24.5077 13.4653 24.533 13.4332C24.5582 13.4012 24.5819 13.3678 24.6038 13.3334C24.6258 13.2989 24.646 13.2634 24.6644 13.2269C24.6829 13.1904 24.6995 13.153 24.7142 13.1148C24.7289 13.0766 24.7418 13.0378 24.7526 12.9983C24.7635 12.9588 24.7724 12.9189 24.7793 12.8785C24.7862 12.8382 24.7911 12.7975 24.794 12.7567C24.796 12.7278 24.7971 12.6988 24.7971 12.6698C24.7971 12.6288 24.795 12.5879 24.791 12.5472C24.7869 12.5064 24.7808 12.4659 24.7728 12.4258C24.7647 12.3857 24.7546 12.346 24.7426 12.3069C24.7306 12.2677 24.7167 12.2292 24.7008 12.1915C24.685 12.1538 24.6673 12.1169 24.6478 12.0809C24.6283 12.045 24.6071 12.01 24.5841 11.9762C24.5612 11.9424 24.5365 11.9098 24.5103 11.8785C24.4842 11.8471 24.4565 11.8171 24.4274 11.7886C24.3982 11.7601 24.3676 11.733 24.3358 11.7076C24.304 11.6822 24.2709 11.6583 24.2367 11.6362C24.2025 11.6141 24.1672 11.5937 24.1309 11.5751C24.0947 11.5565 24.0576 11.5398 24.0198 11.5249C23.9819 11.5101 23.9433 11.4972 23.9042 11.4862C23.865 11.4753 23.8253 11.4663 23.7853 11.4593C23.7453 11.4524 23.7049 11.4474 23.6644 11.4446C23.6357 11.4425 23.6069 11.4415 23.5781 11.4415V11.4414Z" fill="black"/>
<path d="M17.2813 8.00019C16.7246 7.99929 16.2278 8.0016 15.7816 8.00789L14.5852 8.03998C14.2307 8.05539 13.9176 8.07548 13.6365 8.10147C13.4959 8.11444 13.3633 8.12895 13.2377 8.14493C13.1181 8.16002 12.9988 8.17759 12.8799 8.19763C12.7668 8.21689 12.6594 8.23768 12.5564 8.26028C12.4534 8.28287 12.3551 8.30726 12.2602 8.33345C12.1674 8.35906 12.0754 8.38723 11.9842 8.41793C11.8948 8.44809 11.8076 8.48006 11.7215 8.51421C11.5493 8.58251 11.3813 8.65914 11.2083 8.74503C11.0752 8.81114 10.9522 8.87809 10.8354 8.94896C10.7185 9.01982 10.6079 9.09467 10.4995 9.17618C10.3879 9.26055 10.2804 9.35012 10.1772 9.44462C10.0694 9.54296 9.9592 9.65112 9.84476 9.77198C9.70094 9.92302 9.57597 10.0638 9.46505 10.202C9.40959 10.2711 9.35765 10.3394 9.30873 10.4081C9.26035 10.4758 9.2141 10.545 9.17005 10.6155C9.12645 10.6855 9.08516 10.7568 9.04566 10.8301C9.00555 10.9046 8.96764 10.9804 8.93198 11.0572C8.85901 11.214 8.79092 11.383 8.72296 11.5716C8.67253 11.711 8.62739 11.8523 8.5876 11.9951C8.54702 12.1411 8.51092 12.2938 8.47873 12.4589C8.44654 12.6241 8.41846 12.8017 8.39378 12.9981C8.36718 13.2134 8.34592 13.4293 8.33004 13.6457C8.31209 13.8836 8.29722 14.1453 8.28503 14.4367L8.25618 15.4054L8.24066 16.5863L8.23618 18.0137L8.24932 20.0893L8.29035 21.662L8.32196 22.2762L8.36146 22.7853C8.37412 22.9225 8.38996 23.0593 8.40897 23.1958C8.42628 23.317 8.44488 23.423 8.46488 23.5148C8.50547 23.7014 8.55347 23.8864 8.60876 24.0692C8.6617 24.2442 8.72224 24.4168 8.79021 24.5865C8.85703 24.7528 8.93012 24.9131 9.00962 25.0674C9.08913 25.2217 9.17505 25.37 9.26738 25.5124C9.35971 25.6549 9.45845 25.7915 9.56386 25.9222C9.66915 26.053 9.78114 26.1782 9.89938 26.2973C10.0178 26.4167 10.1427 26.5303 10.2743 26.6383C10.4075 26.7475 10.546 26.8501 10.6892 26.9458C10.8221 27.0347 10.9536 27.1162 11.0861 27.191C11.2185 27.2657 11.3522 27.3336 11.4895 27.3953C11.6268 27.457 11.7676 27.5125 11.9147 27.5624C12.0618 27.6124 12.2151 27.6568 12.377 27.6962C12.539 27.7356 12.7104 27.7702 12.8919 27.8004C13.0733 27.8305 13.2673 27.8564 13.4745 27.8787C13.6817 27.901 13.9028 27.9194 14.1404 27.9348C14.3779 27.9502 14.6318 27.9625 14.9047 27.9724C15.3261 27.9877 15.9641 27.9966 16.6997 28L19.0814 27.9952L21.3367 27.9635L22.1942 27.9394L22.7528 27.9106C22.8727 27.9009 22.9901 27.8893 23.1033 27.8758C23.2165 27.8622 23.3282 27.8468 23.437 27.8292C23.5457 27.8116 23.652 27.792 23.7565 27.7701C23.8597 27.7486 23.9624 27.7246 24.0645 27.6981C24.1655 27.6724 24.2652 27.6432 24.3638 27.6122C24.4624 27.5812 24.56 27.5477 24.657 27.5117C24.7546 27.4755 24.8512 27.437 24.9469 27.3961C25.0433 27.355 25.1395 27.3111 25.2361 27.2645C25.3844 27.193 25.5038 27.1334 25.6086 27.0752C25.7072 27.021 25.8022 26.9605 25.8929 26.8939C25.9824 26.8279 26.0714 26.7528 26.174 26.6582C26.2766 26.5636 26.3928 26.4496 26.5368 26.3054C26.6633 26.1788 26.77 26.0688 26.862 25.9688C26.954 25.8687 27.0315 25.7786 27.0995 25.6918C27.1643 25.6095 27.2246 25.5237 27.2803 25.435C27.3346 25.3483 27.3846 25.2583 27.4356 25.1585C27.5123 25.0083 27.5805 24.8692 27.6416 24.735C27.7009 24.6056 27.7551 24.474 27.8041 24.3404C27.8523 24.2078 27.894 24.0729 27.9292 23.9363C27.9653 23.7957 27.9965 23.6473 28.0234 23.4845C28.0503 23.3217 28.0731 23.1446 28.0928 22.9468C28.1126 22.7489 28.1294 22.5303 28.1441 22.2846L28.1833 21.46L28.2169 20.4345L28.2408 19.2919L28.2501 18.0972L28.2287 15.7508L28.2 14.6999L28.1609 13.7975L28.1121 13.094C28.0945 12.8982 28.0753 12.744 28.0551 12.6398C28.0327 12.5246 28.0076 12.41 27.9799 12.2959C27.953 12.185 27.9234 12.0747 27.8911 11.9652C27.8597 11.8585 27.8255 11.7526 27.7887 11.6476C27.7523 11.544 27.7137 11.4425 27.6733 11.3432C27.6329 11.2439 27.5891 11.1469 27.5436 11.052C27.4981 10.957 27.4504 10.8644 27.4003 10.7739C27.3502 10.6834 27.298 10.5951 27.2435 10.5091C27.1889 10.423 27.1321 10.3391 27.0729 10.2574C27.0141 10.1761 26.9527 10.0965 26.8889 10.019C26.8254 9.94186 26.7595 9.86676 26.6913 9.79381C26.6232 9.72094 26.5528 9.65026 26.4802 9.58186C26.4075 9.51343 26.3327 9.44719 26.2555 9.38313C26.178 9.31886 26.0986 9.25701 26.0172 9.19769C25.9351 9.13776 25.8511 9.08035 25.7654 9.02553C25.6785 8.96994 25.5901 8.91694 25.5001 8.8666C25.4085 8.81542 25.3155 8.76687 25.2212 8.72102C25.0646 8.64483 24.9198 8.57724 24.7777 8.51729C24.6379 8.45779 24.4955 8.40495 24.3508 8.35894C24.2052 8.31304 24.0537 8.27369 23.887 8.23974C23.7203 8.20578 23.5385 8.17748 23.3328 8.1534C23.127 8.12933 22.8973 8.10988 22.6345 8.09371C22.3718 8.07753 22.0763 8.06482 21.7388 8.05455L20.592 8.02888L19.1406 8.01174L17.2819 8.00031L17.2813 8.00019ZM18.2466 9.7655L20.9269 9.78078L21.938 9.80029C22.2165 9.80812 22.429 9.8173 22.5535 9.82789C22.7158 9.84156 22.8703 9.8587 23.0181 9.87924C23.1599 9.89885 23.3011 9.92323 23.4413 9.95235C23.5759 9.9806 23.7043 10.0127 23.8272 10.0489C23.9502 10.0851 24.0676 10.1257 24.1802 10.1705C24.2929 10.2154 24.4006 10.2648 24.5043 10.3188C24.6071 10.3724 24.7071 10.4315 24.8037 10.4956C24.8999 10.5595 24.9926 10.6283 25.0826 10.7025C25.1726 10.7766 25.2599 10.8561 25.3451 10.941C25.4351 11.0307 25.518 11.1221 25.5945 11.2163C25.6707 11.3099 25.7412 11.4081 25.8057 11.5102C25.8708 11.6138 25.9295 11.7213 25.9815 11.8321C26.0345 11.9451 26.0823 12.0645 26.1251 12.1914C26.1679 12.3183 26.2061 12.4531 26.2399 12.5972C26.2752 12.75 26.3049 12.9041 26.3287 13.0591C26.3544 13.2234 26.3763 13.3986 26.3949 13.5863C26.4135 13.7739 26.4289 13.974 26.4416 14.188C26.4517 14.3597 26.4605 14.5863 26.468 14.8539L26.4868 15.7664L26.5012 18.0014L26.4848 20.2343L26.4652 21.1441L26.4382 21.8059C26.4195 22.1157 26.3998 22.3762 26.3762 22.6029C26.3643 22.7163 26.3515 22.8211 26.3372 22.9195C26.3239 23.0125 26.3081 23.1051 26.2899 23.1972C26.2732 23.2813 26.2538 23.3647 26.2318 23.4476C26.2108 23.5266 26.187 23.6049 26.1607 23.6823C26.1342 23.7601 26.1054 23.8371 26.0742 23.9131C26.0413 23.9934 26.0066 24.073 25.97 24.1517C25.9375 24.222 25.9034 24.2903 25.8672 24.3569C25.8314 24.4228 25.7935 24.4875 25.7533 24.5508C25.7136 24.6135 25.6719 24.6744 25.6283 24.7334C25.5849 24.7922 25.5395 24.8494 25.492 24.9049C25.4447 24.9602 25.3953 25.0137 25.3441 25.0654C25.2928 25.117 25.2396 25.1669 25.1844 25.215C25.1293 25.2632 25.0721 25.3094 25.0129 25.354C24.9537 25.3985 24.8925 25.4412 24.8292 25.4822C24.7659 25.5232 24.7006 25.5624 24.6333 25.5999C24.5659 25.6374 24.4964 25.6732 24.4249 25.7073C24.3521 25.7419 24.2784 25.7743 24.2037 25.8045C24.1266 25.8357 24.0485 25.8647 23.9697 25.8915C23.8094 25.9462 23.6403 25.9942 23.4623 26.0356C23.2768 26.0785 23.0896 26.1135 22.9012 26.1407C22.8287 26.1513 22.6622 26.1613 22.4237 26.1705L21.5148 26.1958L18.9379 26.2293L16.2407 26.2335L15.1815 26.2222L14.4937 26.2008L13.9866 26.1651C13.8291 26.1518 13.6826 26.1371 13.5454 26.1203C13.4082 26.1035 13.2804 26.0849 13.1602 26.0638C13.0463 26.0441 12.933 26.0205 12.8207 25.9932C12.7183 25.9683 12.6169 25.9392 12.5168 25.906C12.4203 25.8739 12.328 25.8386 12.2383 25.7998C12.1485 25.761 12.0613 25.7184 11.9749 25.6719C11.8886 25.6255 11.8031 25.575 11.7167 25.52C11.6515 25.4785 11.5884 25.4366 11.5278 25.3921C11.4671 25.3476 11.4085 25.3032 11.3521 25.2568C11.2957 25.2103 11.2415 25.1624 11.1892 25.1131C11.1373 25.0641 11.0872 25.0131 11.0389 24.9605C10.9909 24.908 10.9449 24.8539 10.9008 24.798C10.8565 24.7418 10.8143 24.684 10.7743 24.6246C10.7336 24.5644 10.6952 24.5028 10.659 24.4398C10.6225 24.3762 10.5877 24.3105 10.5547 24.2427C10.5212 24.1736 10.4898 24.1035 10.4608 24.0324C10.4313 23.96 10.4033 23.8853 10.3771 23.8081C10.3245 23.6537 10.2783 23.4894 10.2382 23.3142C10.198 23.1389 10.1638 22.9528 10.1348 22.7544C10.1058 22.5561 10.0825 22.3458 10.0639 22.1223C10.0502 21.9577 10.0393 21.7012 10.031 21.3777L10.0135 20.2271L10.0199 17.2941L10.0704 14.4913L10.1089 13.5038L10.1307 13.1774C10.1382 13.0903 10.146 13.0257 10.1541 12.9869C10.1805 12.8594 10.2071 12.7407 10.2346 12.6296C10.2603 12.5248 10.2889 12.4207 10.3203 12.3174C10.3502 12.22 10.3817 12.1287 10.4153 12.0423C10.4478 11.9585 10.484 11.8762 10.5238 11.7957C10.5626 11.7174 10.6044 11.6424 10.6497 11.5695C10.695 11.4965 10.7439 11.4257 10.7973 11.3553C10.8506 11.2848 10.9081 11.2153 10.9706 11.1448C11.0331 11.0744 11.1006 11.0032 11.1738 10.9298C11.2592 10.8439 11.348 10.7616 11.4402 10.683C11.5272 10.6089 11.6179 10.5393 11.712 10.4745C11.8046 10.4103 11.8995 10.3531 11.9983 10.3006C12.0971 10.2481 12.1998 10.2007 12.3078 10.158C12.4159 10.1153 12.5294 10.0771 12.6496 10.0425C12.7759 10.007 12.9036 9.97675 13.0324 9.95178C13.1678 9.9252 13.3116 9.90203 13.4651 9.88181C13.6187 9.86159 13.7821 9.84413 13.9567 9.82898C14.0786 9.81846 14.2885 9.80908 14.5649 9.80119L15.5709 9.78129L18.247 9.76492L18.2466 9.7655Z" fill="black"/>
<defs>
<linearGradient id="paint0_linear_125_119" x1="18.243" y1="0" x2="18.243" y2="36" gradientUnits="userSpaceOnUse">
<stop stop-color="#BD8B2A"/>
<stop offset="1" stop-color="#D1A858"/>
</linearGradient>
</defs>
</svg>
