<svg width="37" height="36" viewBox="0 0 37 36" fill="none" xmlns="http://www.w3.org/2000/svg">
<ellipse cx="18.2059" cy="18" rx="18.0125" ry="18" fill="url(#paint0_linear_125_126)"/>
<path d="M8.53029 13.646H12.684V26.9991H8.53029V13.646ZM10.6041 7C11.9293 7 13.0064 8.07822 13.0064 9.40479C13.0064 10.7314 11.9293 11.8122 10.605 11.8122C9.9675 11.8108 9.35653 11.5568 8.90568 11.1056C8.45484 10.6545 8.20083 10.0429 8.19922 9.40479C8.19922 9.08877 8.26144 8.77585 8.38233 8.48391C8.50322 8.19198 8.6804 7.92676 8.90375 7.70342C9.1271 7.48008 9.39223 7.303 9.68399 7.1823C9.97575 7.0616 10.2884 6.99966 10.6041 7ZM15.2776 13.646H19.254V15.471H19.309C19.8628 14.4216 21.2151 13.3145 23.24 13.3145C27.4383 13.3145 28.2131 16.0805 28.2131 19.6754V27H24.0699V20.5044C24.0699 18.9566 24.0419 16.9628 21.9157 16.9628C19.758 16.9628 19.4261 18.6506 19.4261 20.3908V26.9965H15.2837V13.6433L15.2776 13.646Z" fill="black"/>
<defs>
<linearGradient id="paint0_linear_125_126" x1="18.2059" y1="0" x2="18.2059" y2="36" gradientUnits="userSpaceOnUse">
<stop stop-color="#BD8B2A"/>
<stop offset="1" stop-color="#D1A858"/>
</linearGradient>
</defs>
</svg>
