<svg width="112" height="113" viewBox="0 0 112 113" fill="none" xmlns="http://www.w3.org/2000/svg">
<path fill-rule="evenodd" clip-rule="evenodd" d="M74.9223 96.9172C70.0025 100.614 64.9561 103.708 60.6778 105.991L56.2688 108.343L51.8598 105.991C47.7981 103.823 43.0418 100.925 38.3631 97.4746L39.021 97.9541L30.4277 95.9746C37.0065 101.655 44.3739 106.339 50.495 109.61L56.2688 112.696L62.0426 109.61C68.1637 106.339 75.5271 101.659 82.1058 95.9746L73.5126 97.9541C73.9825 97.6139 74.4524 97.2697 74.9182 96.9172H74.9223Z" fill="#BD8B2A"/>
<path fill-rule="evenodd" clip-rule="evenodd" d="M16.5664 21.6021L32.7763 14.512V10.2744L12.9297 18.9546V51.3024L16.5664 50.4663V21.6021ZM44.6222 9.3318L56.2679 4.23763L95.9694 21.6021V50.4622L99.6061 51.2983V18.9546L56.2679 0L44.6222 5.09417V9.3318Z" fill="#BD8B2A"/>
<path fill-rule="evenodd" clip-rule="evenodd" d="M44.6949 28.7153V40.084H46.7911C47.3999 40.084 48.9486 40.043 49.3817 39.5184C49.8517 38.9488 49.9783 37.2193 50.0192 36.5144L50.0396 36.1373H51.9234V47.2273H50.0355L50.0151 46.8503C49.9702 45.9527 49.8271 44.0757 49.2428 43.3462C48.7198 42.6987 47.5838 42.5962 46.8197 42.5962H44.6867V51.6821C44.6867 52.2026 44.7194 53.5755 45.1321 53.9649C45.553 54.3706 46.9259 54.3993 47.4694 54.3993H48.2294V56.8788H34.9166V54.3993H35.313C35.8197 54.3993 37.1436 54.3665 37.5318 53.9813C37.9281 53.5919 37.9567 52.1944 37.9567 51.6821V31.3628C37.9567 30.8546 37.9281 29.4735 37.54 29.0842C37.1518 28.6866 35.8197 28.6457 35.3089 28.6416H34.9166V26.1621H55.0779V33.8464H53.1942L53.1574 33.4898C53.0348 32.3054 52.7243 30.5063 51.7763 29.6743C49.8966 28.0145 47.3632 28.7153 44.6867 28.7153H44.6949ZM54.0278 103.956C49.9293 101.771 44.7889 98.628 39.7342 94.833L19.859 90.2552H42.284C47.3386 94.1035 52.4995 97.2756 56.2629 99.3001C60.0263 97.2797 65.1871 94.1035 70.2418 90.2552H92.6668L72.7793 94.8371C67.7288 98.628 62.5883 101.771 58.494 103.956L56.2588 105.148L54.0237 103.956H54.0278ZM41.8059 8.4821V13.6992L56.2629 7.37146L92.9488 23.4326V27.3998V53.0592L110.225 57.0386H87.8001V27.4244L72.0315 20.5208L56.2629 13.6172L24.7256 27.4244V57.0386H2.30469L19.5811 53.0592V27.3998V23.4326L35.5827 16.4246V9.08454L41.81 6.36328V8.4821H41.8059ZM67.8595 54.0837H70.1396C71.5493 54.0837 73.4699 53.8952 74.5118 52.8133C75.611 51.6698 75.9624 49.1699 76.1014 47.6658L76.1341 47.3052H77.601V57.0345L58.0894 56.887V54.4075H58.4858C58.9925 54.4075 60.3246 54.3788 60.7128 53.9813C61.101 53.5878 61.1296 52.2026 61.1296 51.6944V31.3669C61.1296 30.8546 61.101 29.4694 60.7046 29.0801C60.3123 28.6907 58.9884 28.6457 58.4817 28.6457H58.0894V26.1662H71.296V28.6457H70.585C70.0579 28.6457 68.7258 28.6785 68.3131 29.0719C67.8963 29.4612 67.8677 30.8505 67.8677 31.371V54.0837H67.8595Z" fill="#BD8B2A"/>
<path d="M0.00817239 73.7525L2.91346 72.064C3.44058 73.2894 4.34363 74.1132 6.00671 74.1132C7.66979 74.1132 8.00894 73.478 8.00894 72.9083C8.00894 71.9985 7.16719 71.6419 4.95656 71.0272C2.76635 70.4124 0.617016 69.3592 0.617016 66.5273C0.617016 63.6953 3.01561 62.0273 5.5654 62.0273C8.11519 62.0273 9.88042 63.1872 10.9551 65.3633L8.1111 67.0313C7.60441 65.974 6.90976 65.3224 5.56131 65.3224C4.50707 65.3224 3.98404 65.851 3.98404 66.4412C3.98404 67.1174 4.34363 67.5805 6.63598 68.2772C8.86705 68.9534 11.3719 69.7362 11.3719 72.8591C11.3719 75.7115 9.09996 77.4 5.89638 77.4C2.6928 77.4 0.821325 75.9205 0 73.7443L0.00817239 73.7525Z" fill="#BD8B2A"/>
<path d="M24.752 67.3995C24.752 70.2068 22.5005 72.4691 19.5952 72.4691H17.3846V77.1165H14.0135V62.334H19.5952C22.5005 62.334 24.752 64.5921 24.752 67.4036V67.3995ZM21.3809 67.3995C21.3809 66.3216 20.625 65.4979 19.5911 65.4979H17.3805V69.3011H19.5911C20.625 69.3011 21.3809 68.4773 21.3809 67.3995Z" fill="#BD8B2A"/>
<path d="M36.7517 73.8625V77.1165H27.4883V62.334H36.6495V65.588H30.8594V68.0388H36.1224V71.2478H30.8594V73.8666H36.7558L36.7517 73.8625Z" fill="#BD8B2A"/>
<path d="M38.959 69.7216C38.959 65.3692 42.1789 62.0332 46.6247 62.0332C49.2971 62.0332 51.6589 63.3651 52.9419 65.4553L50.0367 67.1438C49.3829 66.0044 48.1202 65.3282 46.6247 65.3282C44.0136 65.3282 42.3301 67.0823 42.3301 69.7216C42.3301 72.3609 44.0136 74.115 46.6247 74.115C48.1202 74.115 49.4033 73.4387 50.0367 72.2994L52.9419 73.9879C51.6793 76.078 49.3216 77.41 46.6247 77.41C42.183 77.41 38.959 74.074 38.959 69.7216Z" fill="#BD8B2A"/>
<path d="M58.9432 62.3281V77.1106H55.5762V62.3281H58.9432Z" fill="#BD8B2A"/>
<path d="M71.1487 74.7869H65.6732L64.9377 77.1106H61.252L66.2616 62.3281H70.5562L75.5659 77.1106H71.8801L71.1446 74.7869H71.1487ZM70.1394 71.6189L68.411 66.1928L66.6866 71.6189H70.1394Z" fill="#BD8B2A"/>
<path d="M86.5246 73.8625V77.1165H77.8904V62.334H81.2575V73.8625H86.5205H86.5246Z" fill="#BD8B2A"/>
<path d="M97.4725 65.5822H93.6805V77.1106H90.3094V65.5822H86.5215V62.3281H97.4684V65.5822H97.4725Z" fill="#BD8B2A"/>
<path d="M107.052 71.4304V77.1106H103.685V71.4304L98.7363 62.3281H102.569L105.368 68.0288L108.167 62.3281H112L107.052 71.4304Z" fill="#BD8B2A"/>
<path d="M17.4766 79.668H20.8395C21.7221 79.668 22.4045 79.8893 22.8989 80.3319C23.3934 80.7745 23.6385 81.4097 23.6385 82.2417C23.6385 82.8196 23.5037 83.3113 23.2381 83.7171C22.9725 84.1228 22.5925 84.4179 22.1062 84.6023L23.5813 87.4506H21.8488L20.484 84.8113H19.1642V87.4506H17.4766V79.668ZM20.5412 83.3974C20.9703 83.3974 21.3094 83.3031 21.5587 83.1187C21.8079 82.9343 21.9305 82.6392 21.9305 82.2376C21.9305 81.8155 21.8079 81.5163 21.5628 81.3401C21.3176 81.1638 20.9784 81.0778 20.5412 81.0778H19.1642V83.3933H20.5412V83.3974Z" fill="#BD8B2A"/>
<path d="M30.447 87.1101C29.8137 86.77 29.3152 86.2905 28.9556 85.6798C28.5919 85.0692 28.4121 84.3643 28.4121 83.5692C28.4121 82.7741 28.5919 82.0692 28.9556 81.4545C29.3192 80.8398 29.8178 80.3603 30.447 80.0201C31.0804 79.6799 31.7832 79.5078 32.5596 79.5078C33.336 79.5078 34.0388 79.6799 34.664 80.0201C35.2892 80.3603 35.7836 80.8398 36.1473 81.4545C36.5109 82.0692 36.6907 82.7741 36.6907 83.5692C36.6907 84.3643 36.5109 85.0651 36.1473 85.6798C35.7836 86.2905 35.2892 86.77 34.664 87.1101C34.0388 87.4503 33.336 87.6224 32.5596 87.6224C31.7832 87.6224 31.0763 87.4503 30.447 87.1101ZM33.7773 85.7577C34.145 85.5528 34.4352 85.2659 34.6476 84.8889C34.8601 84.5159 34.9705 84.0733 34.9705 83.5692C34.9705 83.0651 34.8642 82.6348 34.6558 82.2619C34.4433 81.8889 34.1573 81.5979 33.7895 81.393C33.4218 81.1881 33.0132 81.0857 32.5637 81.0857C32.1142 81.0857 31.6933 81.1881 31.3256 81.393C30.9578 81.5979 30.6677 81.8848 30.4552 82.2619C30.2386 82.6389 30.1324 83.0733 30.1324 83.5692C30.1324 84.0651 30.2386 84.5118 30.4552 84.8889C30.6677 85.2659 30.9619 85.5528 31.3337 85.7577C31.7056 85.9626 32.1142 86.0651 32.5637 86.0651C33.0132 86.0651 33.4136 85.9626 33.7773 85.7577Z" fill="#BD8B2A"/>
<path d="M43.5955 87.1101C42.9621 86.77 42.4636 86.2905 42.104 85.6798C41.7403 85.0692 41.5605 84.3643 41.5605 83.5692C41.5605 82.7741 41.7403 82.0692 42.104 81.4545C42.4677 80.8398 42.9662 80.3603 43.5955 80.0201C44.2288 79.6799 44.9317 79.5078 45.708 79.5078C46.4844 79.5078 47.1872 79.6799 47.8124 80.0201C48.4376 80.3603 48.932 80.8398 49.2957 81.4545C49.6594 82.0692 49.8392 82.7741 49.8392 83.5692C49.8392 84.3643 49.6594 85.0651 49.2957 85.6798C48.932 86.2905 48.4376 86.77 47.8124 87.1101C47.1872 87.4503 46.4844 87.6224 45.708 87.6224C44.9317 87.6224 44.2247 87.4503 43.5955 87.1101ZM46.9257 85.7577C47.2935 85.5528 47.5836 85.2659 47.7961 84.8889C48.0086 84.5159 48.1189 84.0733 48.1189 83.5692C48.1189 83.0651 48.0127 82.6348 47.8043 82.2619C47.5918 81.8889 47.3057 81.5979 46.938 81.393C46.5702 81.1881 46.1616 81.0857 45.7121 81.0857C45.2626 81.0857 44.8418 81.1881 44.474 81.393C44.1062 81.5979 43.8161 81.8848 43.6036 82.2619C43.3871 82.6389 43.2808 83.0733 43.2808 83.5692C43.2808 84.0651 43.3871 84.5118 43.6036 84.8889C43.8161 85.2659 44.1103 85.5528 44.4822 85.7577C44.854 85.9626 45.2626 86.0651 45.7121 86.0651C46.1616 86.0651 46.5621 85.9626 46.9257 85.7577Z" fill="#BD8B2A"/>
<path d="M54.9864 79.668H60.3679V81.0942H56.674V82.9097H59.3913V84.213H56.674V87.4506H54.9864V79.668Z" fill="#BD8B2A"/>
<path d="M65.3027 79.668H66.9903V87.4506H65.3027V79.668Z" fill="#BD8B2A"/>
<path d="M72.3691 79.668H74.0117L77.2521 84.7007V79.668H78.9397V87.4506H77.3093L74.0567 82.4179V87.4506H72.3691V79.668Z" fill="#BD8B2A"/>
<path d="M86.0917 87.1265C85.4543 86.7946 84.9639 86.3274 84.6166 85.7167C84.2693 85.1102 84.0936 84.393 84.0936 83.5692C84.0936 82.7455 84.2652 82.0283 84.6166 81.4176C84.9639 80.807 85.4543 80.3357 86.0917 80.0037C86.7292 79.6717 87.4606 79.5078 88.2901 79.5078C88.854 79.5078 89.3484 79.5652 89.7816 79.6799C90.2147 79.7947 90.611 79.975 90.9747 80.2209V81.8356C90.6478 81.5693 90.276 81.3725 89.8592 81.2496C89.4424 81.1266 88.9643 81.0652 88.4331 81.0652C87.9387 81.0652 87.4933 81.1676 87.0969 81.3725C86.7006 81.5774 86.39 81.8684 86.1612 82.2455C85.9324 82.6225 85.8179 83.0651 85.8179 83.5692C85.8179 84.0733 85.9242 84.5282 86.1326 84.9094C86.3451 85.2905 86.6393 85.5856 87.0275 85.7946C87.4116 86.0036 87.857 86.1061 88.3596 86.1061C88.8172 86.1061 89.2177 86.0241 89.5568 85.8602V84.3561H88.3024V83.1102H91.1872V86.8601C90.4558 87.3642 89.4873 87.6183 88.2901 87.6183C87.4606 87.6183 86.7292 87.4544 86.0917 87.1224V87.1265Z" fill="#BD8B2A"/>
</svg>
