<svg width="14" height="14" viewBox="0 0 14 14" fill="none" xmlns="http://www.w3.org/2000/svg">
<g clip-path="url(#clip0_1_411)">
<path d="M12.8856 9.1894C12.0279 9.1894 11.1857 9.05534 10.3876 8.79178C9.99652 8.65849 9.51577 8.78077 9.2771 9.02573L7.70184 10.2141C5.875 9.23956 4.7497 8.11541 3.78784 6.30354L4.942 4.77039C5.24186 4.47114 5.34942 4.03401 5.22055 3.62385C4.95568 2.82213 4.82113 1.98093 4.82113 1.12343C4.82117 0.503964 4.31685 0 3.697 0H1.12417C0.504313 0 0 0.503964 0 1.12339C0 8.22365 5.7804 14 12.8856 14C13.5054 14 14.0098 13.496 14.0098 12.8766V10.3127C14.0097 9.69336 13.5054 9.1894 12.8856 9.1894Z" fill="url(#paint0_linear_1_411)"/>
</g>
<defs>
<linearGradient id="paint0_linear_1_411" x1="7.00488" y1="0" x2="7.00488" y2="14" gradientUnits="userSpaceOnUse">
<stop stop-color="#BD8B2A"/>
<stop offset="1" stop-color="#D1A858"/>
</linearGradient>
<clipPath id="clip0_1_411">
<rect width="14.0097" height="14" fill="white"/>
</clipPath>
</defs>
</svg>
