<svg width="24" height="25" viewBox="0 0 24 25" fill="none" xmlns="http://www.w3.org/2000/svg">
<path d="M20.2036 14.3705C19.6797 13.8251 19.0479 13.5334 18.3782 13.5334C17.714 13.5334 17.0767 13.8197 16.5313 14.3651L14.8248 16.0662C14.6843 15.9906 14.5439 15.9204 14.4089 15.8502C14.2145 15.753 14.0309 15.6612 13.8743 15.564C12.2758 14.5487 10.8231 13.2256 9.42975 11.5137C8.75469 10.6604 8.30106 9.94216 7.97163 9.21311C8.41447 8.80808 8.8249 8.38684 9.22453 7.98181C9.37574 7.8306 9.52695 7.67399 9.67816 7.52278C10.8123 6.38869 10.8123 4.91978 9.67816 3.78569L8.20385 2.31138C8.03644 2.14397 7.86363 1.97115 7.70161 1.79834C7.37759 1.46351 7.03736 1.11789 6.68633 0.793861C6.16249 0.275421 5.53605 0 4.8772 0C4.21834 0 3.5811 0.275421 3.04105 0.793861C3.03565 0.799261 3.03565 0.799261 3.03025 0.804662L1.19411 2.657C0.502859 3.34826 0.108629 4.19072 0.0222219 5.1682C-0.107388 6.74512 0.357048 8.21403 0.713475 9.17531C1.58834 11.5353 2.89524 13.7225 4.84479 16.0662C7.21018 18.8907 10.0562 21.121 13.3072 22.6925C14.5493 23.2812 16.2073 23.9778 18.0596 24.0967C18.173 24.1021 18.2918 24.1075 18.3998 24.1075C19.6473 24.1075 20.695 23.6592 21.5159 22.7682C21.5213 22.7573 21.5321 22.7519 21.5375 22.7411C21.8183 22.4009 22.1423 22.0931 22.4825 21.7637C22.7148 21.5423 22.9524 21.31 23.1846 21.067C23.7192 20.5108 24.0001 19.8627 24.0001 19.1985C24.0001 18.5288 23.7138 17.8862 23.1684 17.3461L20.2036 14.3705ZM22.1369 20.0571C22.1315 20.0571 22.1315 20.0625 22.1369 20.0571C21.9263 20.284 21.7103 20.4892 21.4781 20.716C21.127 21.0508 20.7706 21.4018 20.4358 21.7961C19.8904 22.3793 19.2477 22.6547 18.4052 22.6547C18.3242 22.6547 18.2378 22.6547 18.1568 22.6493C16.5529 22.5467 15.0624 21.9203 13.9445 21.3856C10.8879 19.9059 8.20385 17.8052 5.97348 15.1428C4.13194 12.9232 2.90064 10.871 2.08518 8.66767C1.58294 7.32296 1.39933 6.27528 1.48033 5.28701C1.53434 4.65516 1.77736 4.13132 2.22559 3.68308L4.06713 1.84154C4.33175 1.59312 4.61258 1.45811 4.888 1.45811C5.22822 1.45811 5.50364 1.66333 5.67646 1.83614C5.68186 1.84154 5.68726 1.84694 5.69266 1.85234C6.02208 2.16017 6.33531 2.47879 6.66473 2.81902C6.83215 2.99183 7.00496 3.16464 7.17777 3.34286L8.65209 4.81717C9.22453 5.38961 9.22453 5.91886 8.65209 6.4913C8.49547 6.64791 8.34426 6.80452 8.18765 6.95573C7.73401 7.42017 7.30198 7.8522 6.83215 8.27344C6.82135 8.28424 6.81054 8.28964 6.80514 8.30044C6.34071 8.76487 6.42711 9.21851 6.52432 9.52633C6.52972 9.54253 6.53512 9.55873 6.54052 9.57493C6.92395 10.5038 7.46399 11.3787 8.28486 12.421L8.29026 12.4264C9.78077 14.2625 11.3523 15.6936 13.0858 16.7899C13.3072 16.9303 13.5341 17.0437 13.7501 17.1517C13.9445 17.2489 14.1281 17.3407 14.2847 17.4379C14.3063 17.4487 14.3279 17.4649 14.3495 17.4757C14.5331 17.5676 14.706 17.6108 14.8842 17.6108C15.3324 17.6108 15.6132 17.3299 15.705 17.2381L17.552 15.3912C17.7356 15.2076 18.0272 14.9862 18.3674 14.9862C18.7023 14.9862 18.9777 15.1968 19.1451 15.3804C19.1505 15.3858 19.1505 15.3858 19.1559 15.3912L22.1315 18.3668C22.6878 18.9177 22.6878 19.4847 22.1369 20.0571Z" fill="white"/>
</svg>
