<svg width="21" height="24" viewBox="0 0 21 24" fill="none" xmlns="http://www.w3.org/2000/svg">
<g filter="url(#filter0_d_1_416)">
<ellipse cx="10.0669" cy="6.05644" rx="3.8814" ry="3.87871" fill="url(#paint0_linear_1_416)"/>
<ellipse cx="10.0645" cy="6.05896" rx="2.42588" ry="2.42419" fill="black"/>
<path d="M10.0648 0C6.72108 0 4 2.71067 4 6.04333C4 10.7787 9.49472 15.668 9.72855 15.8733C9.82492 15.958 9.94487 16 10.0648 16C10.1848 16 10.3047 15.958 10.4011 15.874C10.6349 15.668 16.1296 10.7787 16.1296 6.04333C16.1296 2.71067 13.4085 0 10.0648 0ZM10.0648 9.33333C8.20696 9.33333 6.69547 7.838 6.69547 6C6.69547 4.162 8.20696 2.66667 10.0648 2.66667C11.9227 2.66667 13.4342 4.162 13.4342 6C13.4342 7.838 11.9227 9.33333 10.0648 9.33333Z" fill="url(#paint1_linear_1_416)"/>
</g>
<defs>
<filter id="filter0_d_1_416" x="0" y="0" width="20.1296" height="24" filterUnits="userSpaceOnUse" color-interpolation-filters="sRGB">
<feFlood flood-opacity="0" result="BackgroundImageFix"/>
<feColorMatrix in="SourceAlpha" type="matrix" values="0 0 0 0 0 0 0 0 0 0 0 0 0 0 0 0 0 0 127 0" result="hardAlpha"/>
<feOffset dy="4"/>
<feGaussianBlur stdDeviation="2"/>
<feComposite in2="hardAlpha" operator="out"/>
<feColorMatrix type="matrix" values="0 0 0 0 0 0 0 0 0 0 0 0 0 0 0 0 0 0 0.15 0"/>
<feBlend mode="normal" in2="BackgroundImageFix" result="effect1_dropShadow_1_416"/>
<feBlend mode="normal" in="SourceGraphic" in2="effect1_dropShadow_1_416" result="shape"/>
</filter>
<linearGradient id="paint0_linear_1_416" x1="10.0669" y1="2.17773" x2="10.0669" y2="9.93515" gradientUnits="userSpaceOnUse">
<stop stop-color="#BD8B2A"/>
<stop offset="1" stop-color="#D1A858"/>
</linearGradient>
<linearGradient id="paint1_linear_1_416" x1="10.0648" y1="0" x2="10.0648" y2="16" gradientUnits="userSpaceOnUse">
<stop stop-color="#BD8B2A"/>
<stop offset="1" stop-color="#D1A858"/>
</linearGradient>
</defs>
</svg>
